<?xml version="1.0" standalone="no"?><!DOCTYPE svg PUBLIC "-//W3C//DTD SVG 1.1//EN" "http://www.w3.org/Graphics/SVG/1.1/DTD/svg11.dtd"><svg t="1756365415332" class="icon" viewBox="0 0 1024 1024" version="1.1" xmlns="http://www.w3.org/2000/svg" p-id="1312" xmlns:xlink="http://www.w3.org/1999/xlink" width="32" height="32"><path d="M34.133333 512A477.866667 477.866667 0 1 0 512 34.133333a477.866667 477.866667 0 0 0-477.866667 477.866667z" fill="#63ABFF" p-id="1313"></path><path d="M215.722667 425.984a3.458844 3.458844 0 0 0 0 1.001244v4.096l0.318577 1.319823v0.591644l0.318578 1.2288v0.728178a3.640889 3.640889 0 0 0 0.4096 1.137778l0.318578 0.8192c0 0.318578 0.318578 0.728178 0.4096 1.001244l0.318578 0.910222c0 0.318578 0.318578 0.591644 0.4096 0.910223l0.4096 1.001244a2.548622 2.548622 0 0 0 0.4096 0.728178 5.415822 5.415822 0 0 1 0.500622 1.137778 2.139022 2.139022 0 0 0 0.4096 0.591644l0.591644 1.137778a2.184533 2.184533 0 0 0 0.4096 0.591644c0 0.4096 0.500622 0.728178 0.728178 1.137778s0.318578 0.4096 0.4096 0.591644a7.7824 7.7824 0 0 0 0.8192 1.137778l0.500622 0.591645 0.728178 0.910222c0 0.318578 0.500622 0.500622 0.728178 0.8192l0.591644 0.728178 1.410845 1.547377 1.547378 1.410845 0.728177 0.591644c0.318578 0 0.500622 0.500622 0.8192 0.728178a5.552356 5.552356 0 0 0 0.910223 0.728178l0.591644 0.500622 1.137778 0.8192 0.591644 0.4096c0.4096 0 0.728178 0.500622 1.137778 0.728178a2.139022 2.139022 0 0 1 0.591645 0.4096l1.137777 0.591644a2.093511 2.093511 0 0 1 0.591645 0.4096 5.415822 5.415822 0 0 0 1.137778 0.500623 2.594133 2.594133 0 0 1 0.728177 0.4096 4.278044 4.278044 0 0 0 1.001245 0.4096l0.910222 0.4096 0.910222 0.318577 1.001245 0.4096 0.8192 0.318578c0.4096 0 0.8192 0.318578 1.137777 0.4096h0.728178l1.2288 0.318578h0.728178l1.319822 0.318578h0.728178a5.961956 5.961956 0 0 0 1.319822 0h0.8192a4.960711 4.960711 0 0 0 1.2288 0H763.312356a41.733689 41.733689 0 0 0 0-83.467378H357.125689l26.441955-26.441956a41.688178 41.688178 0 1 0-58.936888-58.936889L227.009422 392.305778l-1.410844 1.547378-0.591645 0.728177c0 0.318578-0.500622 0.500622-0.728177 0.8192a5.597867 5.597867 0 0 0-0.728178 0.910223l-0.500622 0.591644-0.8192 1.137778-0.4096 0.591644-0.728178 1.137778a2.139022 2.139022 0 0 1-0.4096 0.591644l-0.591645 1.137778a2.139022 2.139022 0 0 1-0.4096 0.591645 5.461333 5.461333 0 0 0-0.500622 1.137777 2.548622 2.548622 0 0 1-0.4096 0.728178 4.232533 4.232533 0 0 0-0.4096 1.001245c0 0.318578-0.318578 0.591644-0.4096 0.910222l-0.318578 0.910222c0 0.318578-0.318578 0.728178-0.4096 1.001245l-0.318577 0.8192c0 0.4096-0.318578 0.8192-0.4096 1.137777s0 0.500622 0 0.728178l-0.318578 1.2288a1.274311 1.274311 0 0 0 0 0.591645l-0.318578 1.319822v0.728178a5.961956 5.961956 0 0 0 0 1.319822v0.8192a4.9152 4.9152 0 0 0 0 1.2288v4.050489a12.925156 12.925156 0 0 0 0 2.048 4.050489 4.050489 0 0 0-0.136533 2.184533z m582.997333 201.432178a5.643378 5.643378 0 0 0 0.728178-0.910222l0.500622-0.591645 0.8192-1.137778 0.4096-0.591644 0.728178-1.137778a2.139022 2.139022 0 0 1 0.4096-0.591644l0.591644-1.137778a2.139022 2.139022 0 0 1 0.4096-0.591645 5.461333 5.461333 0 0 0 0.500622-1.137777 2.548622 2.548622 0 0 1 0.4096-0.728178 4.232533 4.232533 0 0 0 0.4096-1.001245c0-0.318578 0.318578-0.591644 0.4096-0.910222l0.318578-0.910222c0-0.318578 0.318578-0.728178 0.4096-1.001244l0.318578-0.8192c0-0.4096 0.318578-0.8192 0.4096-1.137778s0-0.500622 0-0.728178l0.318578-1.2288a1.319822 1.319822 0 0 0 0-0.591644l0.318578-1.319823v-0.728177a5.961956 5.961956 0 0 0 0-1.319823v-0.8192a4.960711 4.960711 0 0 0 0-1.2288v-1.001244-1.001245-2.048a13.016178 13.016178 0 0 0 0-2.048 3.777422 3.777422 0 0 0 0-1.001244 3.458844 3.458844 0 0 0 0-1.001244v-1.2288-0.8192-1.319823-0.728177l-0.318578-1.319823a1.319822 1.319822 0 0 1 0-0.591644l-0.318578-1.2288v-0.728178a3.595378 3.595378 0 0 0-0.4096-1.137778l-0.318578-0.8192c0-0.318578-0.318578-0.728178-0.4096-1.001244l-0.318578-0.910222c0-0.318578-0.318578-0.591644-0.4096-0.910223l-0.4096-1.001244a2.548622 2.548622 0 0 0-0.4096-0.728178 5.461333 5.461333 0 0 1-0.500622-1.137778 2.139022 2.139022 0 0 0-0.4096-0.591644l-0.591644-1.137778a2.093511 2.093511 0 0 0-0.4096-0.591644c0-0.4096-0.500622-0.728178-0.728178-1.137778s-0.318578-0.4096-0.4096-0.591644a7.7824 7.7824 0 0 0-0.8192-1.137778l-0.500622-0.591645-0.728178-0.910222c0-0.318578-0.500622-0.500622-0.728178-0.8192l-0.591644-0.728178-1.410845-1.547377-1.547377-1.410845-0.728178-0.591644c-0.318578 0-0.500622-0.500622-0.8192-0.728178a5.597867 5.597867 0 0 0-0.910222-0.728178l-0.591645-0.500622-1.137778-0.8192-0.591644-0.4096c-0.4096 0-0.728178-0.500622-1.137778-0.728178a2.093511 2.093511 0 0 1-0.591644-0.4096l-1.137778-0.591644a2.093511 2.093511 0 0 1-0.591645-0.4096 5.461333 5.461333 0 0 0-1.137777-0.500623 2.548622 2.548622 0 0 1-0.728178-0.4096 4.232533 4.232533 0 0 0-1.001245-0.4096l-0.910222-0.4096-0.910222-0.318577-1.001244-0.4096-0.8192-0.318578c-0.4096 0-0.8192-0.318578-1.137778-0.4096h-0.728178l-1.2288-0.318578h-0.728178l-1.319822-0.318578h-0.728178a5.961956 5.961956 0 0 0-1.319822 0h-0.8192a4.960711 4.960711 0 0 0-1.2288 0H259.595378a41.733689 41.733689 0 0 0 0 83.467378h406.3232l-26.441956 26.441956a41.688178 41.688178 0 0 0 58.936889 58.936889l97.621333-97.621334 1.410845-1.547378 0.591644-0.728177 0.8192-0.910223z" fill="#FFFFFF" p-id="1314"></path></svg>