<svg width="64" height="64" viewBox="0 0 64 64" fill="none" xmlns="http://www.w3.org/2000/svg">
  <circle cx="32" cy="32" r="29" fill="#FFF7EF"/>
  <path d="M18 40C19.6 29.4 24.4 21 32 21C39.6 21 44.4 29.4 46 40C46.6 44.2 43.3 48 39 48H25C20.7 48 17.4 44.2 18 40Z" fill="#FFE0D1"/>
  <path d="M23 40C24.2 31.9 27.5 26 32 26C36.5 26 39.8 31.9 41 40C41.3 42 39.8 44 37.7 44H26.3C24.2 44 22.7 42 23 40Z" fill="#FFFFFF"/>
  <path d="M29 35H35L37 44H27L29 35Z" fill="#6F9F8E"/>
  <path d="M21 42C25.9 45.7 38.1 45.7 43 42" stroke="#B98074" stroke-width="3" stroke-linecap="round"/>
</svg>
