<?xml version="1.0" standalone="no"?><!DOCTYPE svg PUBLIC "-//W3C//DTD SVG 1.1//EN" "http://www.w3.org/Graphics/SVG/1.1/DTD/svg11.dtd"><svg t="1755765694773" class="icon" viewBox="0 0 1024 1024" version="1.1" xmlns="http://www.w3.org/2000/svg" p-id="18886" xmlns:xlink="http://www.w3.org/1999/xlink" width="32" height="32"><path d="M821.5 341C745 341 683 279 683 202.5S621 64 544.5 64h-65C403 64 341 126 341 202.5S279 341 202.5 341 64 403 64 479.5v65C64 621 126 683 202.5 683S341 745 341 821.5 403 960 479.5 960h65C621 960 683 898 683 821.5S745 683 821.5 683 960 621 960 544.5v-65C960 403 898 341 821.5 341z" fill="#FF5C8D" p-id="18887"></path></svg>