<?xml version="1.0" standalone="no"?><!DOCTYPE svg PUBLIC "-//W3C//DTD SVG 1.1//EN" "http://www.w3.org/Graphics/SVG/1.1/DTD/svg11.dtd"><svg t="1755587415943" class="icon" viewBox="0 0 1024 1024" version="1.1" xmlns="http://www.w3.org/2000/svg" p-id="2621" xmlns:xlink="http://www.w3.org/1999/xlink" width="32" height="32"><path d="M905.2672 304.64H856.32V155.5456c0-30.1568-20.6336-54.6816-45.952-54.6816H214.5792c-25.344 0-45.952 24.5248-45.952 54.6816v149.0432H119.6544V155.5712C119.6544 98.0224 162.2528 51.2 214.5792 51.2h595.7888c52.3264 0 94.8992 46.8224 94.8992 104.3712v149.0432zM254.2592 815.8976h515.4816v50.6112c0 31.2064 23.2192 56.576 51.712 56.576h76.2368c28.544 0 51.7376-25.3696 51.7376-56.576V386.048c0-31.1808-23.1936-56.576-51.712-56.576h-76.2368c-28.5184 0-51.7376 25.3952-51.7376 56.576l-0.768 242.56-514.7136 0.5376V386.048c0-31.1808-23.2192-56.576-51.7376-56.576H126.3104c-28.544 0-51.7632 25.3952-51.7632 56.576v480.512c0 31.2064 23.2192 56.576 51.7632 56.576H202.496c28.5184 0 51.7376-25.3696 51.7376-56.576v-50.6112zM897.6896 972.8H821.504c-55.5264 0-100.7104-47.6672-100.7104-106.24v-0.9472h-417.536v0.9216C303.232 925.1328 258.048 972.8 202.496 972.8H126.3104C70.7584 972.8 25.6 925.1328 25.6 866.56V386.048c0-58.624 45.184-106.2656 100.7104-106.2656H202.496c55.5264 0 100.7104 47.6672 100.7104 106.24v193.3568l416.9216-0.4352 0.6144-192.9984c0-58.496 45.184-106.1632 100.7104-106.1632h76.2112c55.552 0 100.7104 47.6672 100.7104 106.24v480.512C998.4 925.1328 953.216 972.8 897.6896 972.8zM715.52 256.128a122.3424 122.3424 0 0 1-34.1248 85.0688l-1.3312 1.3568c-27.8528 27.5968-148.8384 142.976-153.7792 147.456a28.1344 28.1344 0 0 1-19.3024 7.8848c-7.168 0-13.9008-2.7136-18.8416-7.6544l-153.7792-147.712-1.792-1.792c-0.4352-0.4352-0.6656-0.8704-1.1264-1.3312a120.7808 120.7808 0 0 1-32.9728-83.2768c0-67.1232 54.528-121.8816 121.4208-121.8816 33.2288 0 64.4352 13.4656 87.0912 37.0432a119.7312 119.7312 0 0 1 87.0912-37.0432c66.8928 0 121.4464 54.784 121.4464 121.8816zM420.1216 195.5328c5.1712 0 9.216-4.2752 9.216-9.216a9.472 9.472 0 0 0-9.4464-9.4208 81.1008 81.1008 0 0 0-80.7936 81.024 9.472 9.472 0 0 0 9.4208 9.4464 9.472 9.472 0 0 0 9.4208-9.4464 62.3616 62.3616 0 0 1 62.1824-62.3872z" fill="#FF5C8D" p-id="2622"></path></svg>