<?xml version="1.0" standalone="no"?><!DOCTYPE svg PUBLIC "-//W3C//DTD SVG 1.1//EN" "http://www.w3.org/Graphics/SVG/1.1/DTD/svg11.dtd"><svg t="1769581172681" class="icon" viewBox="0 0 1024 1024" version="1.1" xmlns="http://www.w3.org/2000/svg" p-id="2174" xmlns:xlink="http://www.w3.org/1999/xlink" width="32" height="32"><path d="M512 512m-512 0a512 512 0 1 0 1024 0 512 512 0 1 0-1024 0Z" fill="#23B899" opacity=".1" p-id="2175"></path><path d="M333.8496 636.416c0-103.0656 79.5136-186.5728 177.4848-186.5728 97.9968 0 177.4848 83.584 177.4848 186.5984" fill="#28B99B" p-id="2176"></path><path d="M683.9552 633.3952a10.112 10.112 0 0 1-10.112-10.112c0-44.672-17.408-86.7328-48.9984-118.3744a166.2976 166.2976 0 0 0-118.3744-48.9984c-44.672 0-86.7072 17.408-118.3488 48.9984a166.2976 166.2976 0 0 0-48.9984 118.3744 10.112 10.112 0 1 1-20.2496 0 186.368 186.368 0 0 1 54.9376-132.6848 186.368 186.368 0 0 1 132.6592-54.9376 186.368 186.368 0 0 1 132.6848 54.9376 186.368 186.368 0 0 1 54.9376 132.6848 10.112 10.112 0 0 1-10.1376 10.112z" fill="#28B99B" p-id="2177"></path><path d="M779.776 645.0176H243.9168a10.112 10.112 0 1 1 0-20.2496h535.9104a10.112 10.112 0 1 1 0 20.224z m-107.2128 49.1776H351.0528a10.112 10.112 0 1 1 0-20.224h321.5616a10.112 10.112 0 1 1-0.0512 20.224z m-100.9664 54.4768H452.096a10.112 10.112 0 1 1 0-20.2496h119.5008a10.112 10.112 0 1 1 0 20.224z m-287.616-146.5088H241.152a10.112 10.112 0 1 1 0-20.2496h42.8544a10.112 10.112 0 1 1 0 20.224z m497.5616 0h-42.8544a10.112 10.112 0 1 1 0-20.2496h42.8544a10.112 10.112 0 1 1 0 20.224z m-270.464-214.3488a10.112 10.112 0 0 1-10.1376-10.112v-85.76a10.112 10.112 0 1 1 20.2496 0v85.76a10.112 10.112 0 0 1-10.112 10.112z m-165.2736 67.1488c-2.56 0-5.1968-1.024-7.168-2.9696l-37.9136-37.9136a10.0608 10.0608 0 0 1 0-14.336 10.0608 10.0608 0 0 1 14.3104 0l37.9136 37.9392a10.0608 10.0608 0 0 1 0 14.336 9.9072 9.9072 0 0 1-7.168 2.944z m326.4768 0c-2.56 0-5.1968-1.024-7.168-2.9696a10.0608 10.0608 0 0 1 0-14.3104l37.9392-37.9136a10.0608 10.0608 0 0 1 14.336 0 10.0608 10.0608 0 0 1 0 14.3104l-37.9392 37.9136a9.7792 9.7792 0 0 1-7.168 2.9696z" fill="#28B99B" p-id="2178"></path></svg>