<?xml version="1.0" standalone="no"?><!DOCTYPE svg PUBLIC "-//W3C//DTD SVG 1.1//EN" "http://www.w3.org/Graphics/SVG/1.1/DTD/svg11.dtd"><svg t="1769584444063" class="icon" viewBox="0 0 1024 1024" version="1.1" xmlns="http://www.w3.org/2000/svg" p-id="2683" xmlns:xlink="http://www.w3.org/1999/xlink" width="32" height="32"><path d="M1020.928 514.048c0 281.088-227.84 508.416-508.416 508.416-281.088 0-508.416-227.84-508.416-508.416C3.584 232.96 231.424 5.12 512.512 5.12c280.576 0 508.416 227.84 508.416 508.928z" fill="#F8BB1C" opacity=".12" p-id="2684"></path><path d="M280.576 515.072c0 127.488 104.448 231.936 231.424 231.936s231.424-104.96 231.424-231.936c0-127.488-104.448-231.936-231.424-231.936s-231.424 104.96-231.424 231.936z m-14.848-192c14.848 14.848 37.376 14.848 54.784 0 17.408-14.848 14.848-37.376 0-54.784l-49.664-50.176c-14.848-14.848-37.376-14.848-54.784 0-17.408 14.848-14.848 37.376 0 54.784l49.664 50.176zM512.512 240.64c22.528 0 37.376-14.848 37.376-37.376V128.512c0-22.528-14.848-37.376-37.376-37.376s-37.376 14.848-37.376 37.376v72.192c0 25.088 14.848 39.936 37.376 39.936z m246.272 82.432l49.664-50.176c14.848-14.848 14.848-37.376 0-54.784-14.848-17.408-37.376-14.848-54.784 0l-49.664 50.176c-14.848 14.848-14.848 37.376 0 54.784 14.848 17.408 39.936 14.848 54.784 0zM238.592 515.072c0-22.528-14.848-37.376-37.376-37.376H126.464c-22.528 0-37.376 14.848-37.376 37.376s14.848 37.376 37.376 37.376h72.192c25.088 0 39.936-14.848 39.936-37.376z m520.192 192.512c-14.848-14.848-37.376-14.848-54.784 0s-14.848 37.376 0 54.784l49.664 50.176c14.848 14.848 37.376 14.848 54.784 0 17.408-14.848 14.848-37.376 0-54.784l-49.664-50.176z m-493.056 0l-49.664 50.176c-14.848 14.848-14.848 37.376 0 54.784 14.848 17.408 37.376 14.848 54.784 0l49.664-50.176c14.848-14.848 14.848-37.376 0-54.784-14.848-17.408-39.936-14.848-54.784 0z m632.32-229.888h-72.192c-22.528 0-37.376 14.848-37.376 37.376s14.848 37.376 37.376 37.376h72.192c22.528 0 37.376-14.848 37.376-37.376s-14.848-37.376-37.376-37.376z m-385.536 312.32c-22.528 0-37.376 14.848-37.376 37.376v72.192c0 22.528 14.848 37.376 37.376 37.376s37.376-14.848 37.376-37.376v-72.192c0-22.528-15.36-37.376-37.376-37.376z" fill="#F8BB1C" p-id="2685"></path></svg>