<?xml version="1.0" standalone="no"?><!DOCTYPE svg PUBLIC "-//W3C//DTD SVG 1.1//EN" "http://www.w3.org/Graphics/SVG/1.1/DTD/svg11.dtd"><svg t="1757578440270" class="icon" viewBox="0 0 1024 1024" version="1.1" xmlns="http://www.w3.org/2000/svg" p-id="2635" xmlns:xlink="http://www.w3.org/1999/xlink" width="32" height="32"><path d="M111.9744 382.7712c-20.1728 48.5888-10.5472 105.2672 26.5216 142.592 26.6752 26.8288 63.5904 43.4688 104.3968 43.4688 60.0064 0 111.5648-35.9424 134.4512-87.4496 22.8864 51.5072 74.4448 87.4496 134.4512 87.4496 59.648 0 111.0016-35.5328 134.0928-86.5792 23.0912 51.0464 74.3936 86.5792 134.0928 86.5792 40.96 0 78.0288-16.7424 104.704-43.776 36.6592-37.12 46.5408-93.1328 26.9312-141.5168L835.072 194.7136c-14.336-35.328-48.64-58.4704-86.784-58.4704H276.8896c-37.8368 0-71.9872 22.784-86.4768 57.7536L111.9744 382.7712z" fill="#FF5F5F" p-id="2636"></path><path d="M925.8496 377.8048l-76.544-188.8256a108.54912 108.54912 0 0 0-101.0176-68.096H276.8896a108.6976 108.6976 0 0 0-100.6592 67.1744L97.792 376.8832c-22.9888 55.3472-11.3152 117.9136 29.7984 159.2832 7.8336 7.8848 16.3328 14.848 25.3952 20.8896V768c0 75.2128 61.184 136.3968 136.3968 136.3968h444.3648c75.2128 0 136.3968-61.184 136.3968-136.3968v-211.0976c9.0624-6.0928 17.5616-13.1072 25.4464-21.0432 40.6016-41.1136 52.48-103.168 30.2592-158.0544zM839.424 768c0 58.2656-47.4112 105.6768-105.6768 105.6768H289.3824c-58.2656 0-105.6768-47.4112-105.6768-105.6768v-194.9184c18.6368 7.2704 38.6048 11.1104 59.2384 11.1104 54.3744 0 104.5504-27.2384 134.4512-71.3216 29.9008 44.032 80.0768 71.3216 134.4512 71.3216 54.0672 0 104.1408-27.0336 134.0928-70.7584 29.952 43.7248 80.0256 70.7584 134.0928 70.7584 20.6848 0 40.7552-3.8912 59.4432-11.2128V768z m-59.4432-214.528c-51.6608 0-98.7648-30.464-120.064-77.568-2.5088-5.4784-7.936-9.0112-13.9776-9.0112s-11.52 3.5328-13.9776 9.0112c-21.2992 47.104-68.4032 77.568-120.064 77.568-52.0192 0-99.2768-30.72-120.4224-78.336-2.4576-5.5296-7.9872-9.1136-14.0288-9.1136s-11.5712 3.584-14.0288 9.1136c-21.1456 47.5648-68.4032 78.336-120.4224 78.336-35.3792 0-68.5568-13.824-93.4912-38.912-32.3584-32.5632-41.472-81.9712-23.2448-125.8496l78.4384-188.7744c12.1856-29.3376 40.5504-48.2816 72.2944-48.2816h471.3472c32.0512 0 60.5184 19.2 72.5504 48.896l76.544 188.8256c17.6128 43.52 8.3456 92.5696-23.6544 124.9792-24.9856 25.1904-58.3168 39.1168-93.7984 39.1168z" fill="#FF5C8D" p-id="2637" data-spm-anchor-id="a313x.manage_type_mylikes.0.i23.2c203a81Qk1O18" class="selected"></path><path d="M716.4928 367.6672H306.6368c-8.4992 0-15.36-6.8608-15.36-15.36s6.8608-15.36 15.36-15.36h409.9072c8.4992 0 15.36 6.8608 15.36 15.36s-6.912 15.36-15.4112 15.36z" fill="#FFFFFF" p-id="2638"></path></svg>