<?xml version="1.0" standalone="no"?><!DOCTYPE svg PUBLIC "-//W3C//DTD SVG 1.1//EN" "http://www.w3.org/Graphics/SVG/1.1/DTD/svg11.dtd"><svg t="1769581246081" class="icon" viewBox="0 0 1024 1024" version="1.1" xmlns="http://www.w3.org/2000/svg" p-id="2512" xmlns:xlink="http://www.w3.org/1999/xlink" width="32" height="32"><path d="M512 512m-512 0a512 512 0 1 0 1024 0 512 512 0 1 0-1024 0Z" fill="#FE7C4B" opacity=".1" p-id="2513"></path><path d="M577.9456 293.8112a242.1248 242.1248 0 0 1 30.7456 118.3744c0 131.3536-103.6032 237.824-231.424 237.824-17.408 0-34.3808-2.0224-50.7648-5.76C364.416 732.16 450.048 793.6 549.632 793.6c134.7328 0 243.968-112.2816 243.968-250.752 0-128.64-94.2336-234.5728-215.6544-249.0368z m-191.8976 33.792h-29.8496V296.96a15.1552 15.1552 0 0 0-14.9248-15.3344 15.1552 15.1552 0 0 0-14.9248 15.3344v30.6688h-29.824a15.1552 15.1552 0 0 0-14.9248 15.36c0 8.448 6.7072 15.3088 14.9248 15.3088h29.824v30.6688c0 8.448 6.7072 15.36 14.9248 15.36a15.1552 15.1552 0 0 0 14.9248-15.36v-30.6688h29.8496a15.1552 15.1552 0 0 0 14.9248-15.3344 15.1552 15.1552 0 0 0-14.9248-15.3344z" fill="#FE7C4B" p-id="2514"></path><path d="M381.1584 324.2752h-28.4416v-28.4416a14.2336 14.2336 0 0 0-28.4416 0v28.416h-28.4416a14.2336 14.2336 0 0 0 0 28.4672h28.416v28.416a14.2336 14.2336 0 0 0 28.4672 0v-28.416h28.416a14.2336 14.2336 0 0 0 0-28.4416zM470.016 512.6912h-21.2736v-21.2992a10.7008 10.7008 0 0 0-21.376 0v21.2992h-21.2992a10.7008 10.7008 0 0 0 0 21.376h21.2992v21.2992a10.7008 10.7008 0 0 0 21.376 0v-21.2992h21.2736a10.7008 10.7008 0 0 0 0-21.376z" fill="#FE7C4B" p-id="2515"></path><path d="M470.016 512.6912h-21.2736v-21.2992a10.6752 10.6752 0 1 0-21.376 0v21.2992h-21.2992a10.6752 10.6752 0 1 0 0 21.376h21.2992v21.2992a10.6752 10.6752 0 1 0 21.376 0v-21.2992h21.2736a10.6752 10.6752 0 1 0 0-21.376z" fill="#FE7C4B" p-id="2516"></path><path d="M568.1664 310.0416a219.776 219.776 0 0 1 28.0576 107.8016c0 119.6032-94.6432 216.576-211.3536 216.576a205.9776 205.9776 0 0 1-46.3872-5.2736c34.6368 80.128 112.8192 136.0128 203.776 136.0128 123.0848 0 222.8992-102.272 222.8992-228.4032 0-117.0688-86.1184-213.6064-196.992-226.7136z" fill="#FE7C4B" p-id="2517"></path></svg>